<svg width="318" height="130" viewBox="0 0 318 130" fill="none" xmlns="http://www.w3.org/2000/svg">
<path d="M121.112 87V28.536H142.424C162.008 28.536 169.208 41.976 169.208 57.72C169.208 73.56 162.008 87 142.424 87H121.112ZM159.992 57.72C159.992 44.664 152.792 37.752 142.424 37.752H130.232V77.784H142.424C152.792 77.784 159.992 70.872 159.992 57.72ZM171.312 87V41.304H180.528V87H171.312ZM170.544 33.144C170.544 29.88 172.656 27.672 175.92 27.672C179.184 27.672 181.392 29.88 181.392 33.144C181.392 36.408 179.184 38.52 175.92 38.52C172.656 38.52 170.544 36.408 170.544 33.144ZM211.27 41.88L209.254 51.384C207.622 50.712 205.894 50.424 204.07 50.424C197.83 50.424 191.878 53.304 191.878 63.192V87H182.758V41.304H191.878V50.712H192.838C194.374 44.184 200.038 41.304 206.374 41.304C207.91 41.304 209.638 41.496 211.27 41.88ZM243.048 74.808L249.672 81.336C245.448 85.464 239.4 87.864 232.104 87.864C217.512 87.864 207.816 78.36 207.816 64.152C207.816 49.944 217.512 40.44 232.104 40.44C246.696 40.44 256.392 49.944 256.392 64.152C256.392 65.592 256.296 67.032 256.104 68.472H217.416C219.144 74.712 224.616 78.744 232.104 78.744C236.712 78.744 240.36 77.304 243.048 74.808ZM217.416 60.12H246.792C245.16 53.688 239.688 49.56 232.104 49.56C224.52 49.56 218.952 53.688 217.416 60.12ZM266.837 25.176V87H257.717V25.176H266.837ZM268.15 64.056C268.15 49.752 276.502 40.44 289.174 40.44C302.902 40.44 305.302 50.712 305.302 50.712H306.166V41.304H315.382V87H306.166V77.304H305.302C305.302 77.304 302.902 87.864 289.174 87.864C276.502 87.864 268.15 78.36 268.15 64.056ZM277.27 64.056C277.27 72.792 283.03 78.648 291.766 78.648C300.406 78.648 306.166 72.792 306.166 64.056C306.166 55.224 300.406 49.368 291.766 49.368C283.03 49.368 277.27 55.224 277.27 64.056Z" fill="#1E1E1E"/>
<path d="M2 36.8398L22.8613 36.8398L22.8613 38.8398C22.8613 66.0624 44.939 88.1384 72.1377 88.1182L74.1387 88.1162L74.1387 109L2 109L2 36.8398Z" fill="#FFD403" stroke="#1E1E1E" stroke-width="4"/>
<path d="M95.1391 88.1602L74.2778 88.1602L74.2778 86.1602C74.2778 58.9376 52.2001 36.8616 25.0014 36.8818L23.0004 36.8838L23.0004 16L95.1391 16L95.1391 88.1602Z" fill="#006A4E" stroke="#1E1E1E" stroke-width="4"/>
</svg>
